# xmcd
#
# Track frame offsets:
# 150
# 17475
# 35462
# 49825
# 67737
# 85862
# 108837
# 128912
# 148862
# 171837
# 192837
# 215100
# 235425
# 256637
# 275337
#
# Disc length: 3931 seconds
#
# Revision: 1
# Processed by: cddbd v1.4PL0 Copyright (c) Steve Scherf et al.
# Submitted via: Easy CD Ripper v2.16
#
DISCID=cf0f590f
DTITLE=李宗盛 - 李宗盛的凡人歌－献给所有和自己赛跑的人
DYEAR=1997
DGENRE=Blues
TTITLE0=凡人歌 - 李宗盛
TTITLE1=生命中的精灵 - 李宗盛
TTITLE2=寂寞难耐 - 李宗盛
TTITLE3=忙于盲 - 李宗盛
TTITLE4=没有人知道 - 李宗盛
TTITLE5=阿宗三件事 - 李宗盛
TTITLE6=如风往事 - 李宗盛
TTITLE7=别说可惜 - 李宗盛
TTITLE8=爱情有什么道理 - 李宗盛
TTITLE9=和自己赛跑的人 - 李宗盛
TTITLE10=这样爱你对不对 - 李宗盛
TTITLE11=爱的代价 - 李宗盛
TTITLE12=我是真的爱你 - 李宗盛
TTITLE13=希望 - 李宗盛
TTITLE14=鬼迷心窍 - 李宗盛
EXTD=
EXTT0=
EXTT1=
EXTT2=
EXTT3=
EXTT4=
EXTT5=
EXTT6=
EXTT7=
EXTT8=
EXTT9=
EXTT10=
EXTT11=
EXTT12=
EXTT13=
EXTT14=
PLAYORDER=
